<svg width="14" height="14" viewBox="0 0 14 14" fill="none" xmlns="http://www.w3.org/2000/svg">
<path d="M8 6.826V1C8 0.447715 7.55228 0 7 0C6.44771 0 6 0.447715 6 1V6.826L4.15099 5.24073C3.73179 4.88132 3.10061 4.92973 2.74111 5.34886C2.38153 5.7681 2.42994 6.39948 2.84923 6.759L6.34908 9.75988C6.72361 10.081 7.27638 10.081 7.65092 9.75988L11.1508 6.759C11.5701 6.39948 11.6185 5.7681 11.2589 5.34886C10.8994 4.92973 10.2682 4.88132 9.849 5.24073L8 6.826Z" fill="#131A35"/>
<path d="M3 12C2.44772 12 2 11.5523 2 11V10C2 9.44772 1.55228 9 1 9C0.447715 9 0 9.44772 0 10V12C0 12.5304 0.210714 13.0391 0.585786 13.4142C0.960859 13.7893 1.46957 14 2 14H12C12.5304 14 13.0391 13.7893 13.4142 13.4142C13.7893 13.0391 14 12.5304 14 12V10C14 9.44772 13.5523 9 13 9C12.4477 9 12 9.44772 12 10V11C12 11.5523 11.5523 12 11 12H3Z" fill="#131A35"/>
</svg>
