<svg width="510" height="350" viewBox="0 0 510 350" fill="none" xmlns="http://www.w3.org/2000/svg">
<path d="M0 350L119.806 0H257.012L383.778 350H267.451L216.745 183.357C211.94 167.545 207.507 152.756 203.447 138.992C199.388 125.228 195.7 112.57 192.386 101.018C189.072 89.3843 185.923 78.1601 182.941 67.3455H194.872C192.304 77.6685 189.486 88.4013 186.421 99.5435C183.355 110.686 179.751 123.303 175.608 137.395C171.549 151.404 167.199 166.233 162.559 181.882L112.349 350H0ZM94.9502 304.284V218.258H289.325V304.284H94.9502ZM397.153 350V251.685H510V350H397.153Z" fill="black"/>
</svg>
