<svg width="110" height="140" viewBox="0 0 110 140" fill="none" xmlns="http://www.w3.org/2000/svg">
<path d="M8.72485 8.78615C11.0842 6.33937 14.2447 5 17.5 5H27.5C30.7553 5 33.9158 6.33937 36.2752 8.78615C38.6405 11.2391 40 14.6036 40 18.1481V121.852C40 125.396 38.6405 128.761 36.2752 131.214C33.9158 133.661 30.7553 135 27.5 135H17.5C10.7713 135 5 129.281 5 121.852V18.1481C5 14.6036 6.3595 11.2391 8.72485 8.78615ZM73.7248 8.78615C76.0842 6.33937 79.2447 5 82.5 5H92.5C95.7553 5 98.9157 6.33937 101.275 8.78615C103.64 11.2391 105 14.6036 105 18.1481V121.852C105 125.396 103.64 128.761 101.275 131.214C98.9157 133.661 95.7553 135 92.5 135H82.5C75.7713 135 70 129.281 70 121.852V18.1481C70 14.6036 71.3595 11.2391 73.7248 8.78615Z" fill="black" stroke="black" stroke-width="10"/>
</svg>
